<svg xmlns="http://www.w3.org/2000/svg" width="10" height="10" fill="none" stroke="#000" xmlns:v="https://vecta.io/nano">
	<path d="M2.6 2.6l-.956-.956A5.14 5.14 0 0 1 5.29.133v1.352c1.051 0 2.002.426 2.69 1.114l.956-.956a5.14 5.14 0 0 1 1.51 3.646H9.094c0 1.051-.426 2.002-1.114 2.69l.956.956a5.14 5.14 0 0 1-3.646 1.51V9.094c-1.051 0-2.002-.426-2.69-1.114l-.956.956A5.14 5.14 0 0 1 .133 5.29h1.352c0-1.051.426-2.002 1.114-2.69z" stroke-width=".265" />
	<circle cx="5.292" cy="5.292" r="1.847" stroke-width=".274" />
</svg>