<?xml version="1.0" encoding="UTF-8" standalone="no"?>
<svg
   width="19.999996mm"
   height="29.999994mm"
   viewBox="0 0 19.999997 29.999994"
   version="1.1"
   id="svg5"
   inkscape:version="1.1.1 (3bf5ae0d25, 2021-09-20)"
   sodipodi:docname="how-to-active.svg"
   xmlns:inkscape="http://www.inkscape.org/namespaces/inkscape"
   xmlns:sodipodi="http://sodipodi.sourceforge.net/DTD/sodipodi-0.dtd"
   xmlns:xlink="http://www.w3.org/1999/xlink"
   xmlns="http://www.w3.org/2000/svg"
   xmlns:svg="http://www.w3.org/2000/svg">
  <sodipodi:namedview
     id="namedview7"
     pagecolor="#ffffff"
     bordercolor="#666666"
     borderopacity="1.0"
     inkscape:pageshadow="2"
     inkscape:pageopacity="0.0"
     inkscape:pagecheckerboard="0"
     inkscape:document-units="mm"
     showgrid="false"
     inkscape:zoom="7.1365529"
     inkscape:cx="34.540485"
     inkscape:cy="44.62939"
     inkscape:window-width="1920"
     inkscape:window-height="991"
     inkscape:window-x="-9"
     inkscape:window-y="-9"
     inkscape:window-maximized="1"
     inkscape:current-layer="layer1" />
  <defs
     id="defs2">
    <linearGradient
       inkscape:collect="always"
       id="linearGradient1227">
      <stop
         style="stop-color:#edf406;stop-opacity:0.46530613"
         offset="0"
         id="stop1223" />
      <stop
         style="stop-color:#f1fb07;stop-opacity:0.60408163"
         offset="1"
         id="stop1225" />
    </linearGradient>
    <radialGradient
       inkscape:collect="always"
       xlink:href="#linearGradient1227"
       id="radialGradient1231"
       cx="9.7659397"
       cy="12.822384"
       fx="9.7659397"
       fy="12.822384"
       r="9.670785"
       gradientTransform="matrix(1,0,0,1.0651721,0,-0.83566151)"
       gradientUnits="userSpaceOnUse" />
  </defs>
  <g
     inkscape:label="Layer 1"
     inkscape:groupmode="layer"
     id="layer1"
     transform="translate(0.37390607,-1.7556796)">
    <ellipse
       style="fill:url(#radialGradient1231);stroke:none;stroke-width:0.312916;stroke-linecap:round;fill-opacity:1"
       id="path31"
       cx="9.7659397"
       cy="12.822384"
       rx="9.670785"
       ry="10.30105" />
    <g
       aria-label="?"
       transform="matrix(0.99432498,0,0,1.0057074,0.52916667,0)"
       id="text1746"
       style="font-size:19px;line-height:1.25;stroke-width:1px">
      <path
         d="m 8.1460637,17.750996 c 0.6304761,0 1.2609522,0 1.8914283,0 0,0.788872 0,1.577743 0,2.366615 -0.6304761,0 -1.2609522,0 -1.8914283,0 0,-0.788872 0,-1.577743 0,-2.366615 z M 9.9815882,16.38134 c -0.5932067,0 -1.1864135,0 -1.7796202,0 C 8.236955,15.359327 8.0684402,14.285706 8.4977221,13.32331 8.9684386,12.436562 9.7804716,11.814148 10.466092,11.102097 11.109824,10.528919 11.627329,9.6376061 11.320671,8.760012 10.999184,7.7759944 9.8512642,7.3850172 8.9006625,7.4947041 7.7893717,7.5946966 6.7793872,8.1409964 5.8726222,8.7597208 c 0,-0.5838893 0,-1.1677787 0,-1.751668 1.5672903,-0.9657364 3.5761525,-1.383101 5.3472678,-0.7669007 1.17332,0.4175021 2.067852,1.5567965 2.074611,2.8201463 0.09459,1.0867366 -0.550036,2.0530516 -1.303561,2.7711206 -0.6077,0.633384 -1.322183,1.18227 -1.797381,1.928408 -0.3180089,0.735717 -0.182707,1.559201 -0.2119716,2.340819 3e-7,0.09323 5e-7,0.186463 8e-7,0.279694 z"
         id="path12494" />
    </g>
    <path
       id="path3110-5"
       style="fill:none;stroke:#000000;stroke-width:1.0117px;stroke-linecap:butt;stroke-linejoin:miter;stroke-opacity:1"
       d="M 7.8280891,31.249823 6.0366505,29.306504 6.0365736,22.727961 C 5.2813614,22.26291 3.5211302,20.615871 2.9123731,19.951421 1.1942808,18.07615 0.13194395,15.485734 0.13194395,12.624166 c 0,-5.7231335 4.25070705,-10.3626364 9.49414815,-10.3626364 5.2434409,1e-7 9.4941489,4.6395029 9.4941479,10.3626364 0,2.861568 -1.062859,5.451984 -2.780951,7.327255 -0.608921,0.664628 -2.36875,2.311947 -3.1242,2.777064 l 0.01778,6.578018 -1.773577,1.943317 z"
       sodipodi:nodetypes="cccssssscccc" />
  </g>
</svg>
